# xmcd CD database file
#
# Track frame offsets:
#	150
#	21533
#	42724
#	65116
#	86174
#	112206
#	130476
#	149835
#	172086
#	195807
#	220075
#	240465
#	264733
#	284466
#	302758
#
# Disc length: 4211 seconds
#
# Revision: 0
# Processed by: cddbd v1.5.2PL0 Copyright (c) Steve Scherf et al.
# Submitted via: CDex 1.50
#
DISCID=f910710f
DTITLE=Various Artist - Cafe Del Mar Vol 15 CD 3
DYEAR=2008
DGENRE=New Age
TTITLE0=Steen Thottrup - Sunset People
TTITLE1=Stigma - Eternity
TTITLE2=Tape Five - Sandbank (Hear the Mermaids Cry)
TTITLE3=Rue - Higher
TTITLE4=Kosta Rodriguez ft. Amy - Gale in the Waterglass (My Love)
TTITLE5=Alejandro de Pinedo - Sax 4 Sex
TTITLE6=Kotik - I See
TTITLE7=Schwarz and Funk - Junto Al Mar
TTITLE8=Almadrava - Fly Away
TTITLE9=Zaharamusic - Aire
TTITLE10=The Birdstones - Closer
TTITLE11=J. R. Haim - Sueño de una gaviota
TTITLE12=Fernando Marañón - Trocadero
TTITLE13=Atlan Chill - Interface
TTITLE14=Elmara - Skyline
EXTD=YEAR: 2008
EXTT0=
EXTT1=
EXTT2=
EXTT3=
EXTT4=
EXTT5=
EXTT6=
EXTT7=
EXTT8=
EXTT9=
EXTT10=
EXTT11=
EXTT12=
EXTT13=
EXTT14=
PLAYORDER=
